# Tiled2Unity generated file. Do not modify by hand.
# Wavefront file for 'Level_2_Ground_mesh_0045.obj'

# Vertices (Count = 52)
v -11 -5 0
v -12 -5 0
v -12 -4 0
v -11 -4 0
v -10 -5 0
v -11 -5 0
v -11 -4 0
v -10 -4 0
v -9 -5 0
v -10 -5 0
v -10 -4 0
v -9 -4 0
v -8 -5 0
v -9 -5 0
v -9 -4 0
v -8 -4 0
v -4 -5 0
v -5 -5 0
v -5 -4 0
v -4 -4 0
v -11 -4 0
v -12 -4 0
v -12 -3 0
v -11 -3 0
v -10 -4 0
v -11 -4 0
v -11 -3 0
v -10 -3 0
v -9 -4 0
v -10 -4 0
v -10 -3 0
v -9 -3 0
v -8 -4 0
v -9 -4 0
v -9 -3 0
v -8 -3 0
v -11 -3 0
v -12 -3 0
v -12 -2 0
v -11 -2 0
v -10 -3 0
v -11 -3 0
v -11 -2 0
v -10 -2 0
v -9 -3 0
v -10 -3 0
v -10 -2 0
v -9 -2 0
v -8 -3 0
v -9 -3 0
v -9 -2 0
v -8 -2 0

# Texture cooridinates (Count = 28)
vt 0.5964567 0.5073892
vt 0.7933071 0.5073892
vt 0.7933071 1
vt 0.5964567 1
vt 0.7952756 0.5073892
vt 0.992126 0.5073892
vt 0.992126 1
vt 0.7952756 1
vt 0 0.5073892
vt 0.1968504 0.5073892
vt 0.1968504 1
vt 0 1
vt 0.1988189 0.009852231
vt 0.3956693 0.009852231
vt 0.3956693 0.502463
vt 0.1988189 0.502463
vt 0.3976378 0.5073892
vt 0.5944882 0.5073892
vt 0.5944882 1
vt 0.3976378 1
vt 0.5964567 0.009852231
vt 0.7933071 0.009852231
vt 0.7933071 0.502463
vt 0.5964567 0.502463
vt 0.7952756 0.009852231
vt 0.992126 0.009852231
vt 0.992126 0.502463
vt 0.7952756 0.502463

# Normal
vn 0 0 -1

# Mesh description
g Level_2_Ground_mesh_0045

# Faces
f 1/1/1 2/2/1 3/3/1 4/4/1
f 5/5/1 6/6/1 7/7/1 8/8/1
f 9/5/1 10/6/1 11/7/1 12/8/1
f 13/9/1 14/10/1 15/11/1 16/12/1
f 17/13/1 18/14/1 19/15/1 20/16/1
f 21/1/1 22/2/1 23/3/1 24/4/1
f 25/5/1 26/6/1 27/7/1 28/8/1
f 29/5/1 30/6/1 31/7/1 32/8/1
f 33/17/1 34/18/1 35/19/1 36/20/1
f 37/21/1 38/22/1 39/23/1 40/24/1
f 41/25/1 42/26/1 43/27/1 44/28/1
f 45/25/1 46/26/1 47/27/1 48/28/1
f 49/13/1 50/14/1 51/15/1 52/16/1

