# Tiled2Unity generated file. Do not modify by hand.
# Wavefront file for 'Level_2_Ground_mesh_0029.obj'

# Vertices (Count = 20)
v -11 -10 0
v -12 -10 0
v -12 -9 0
v -11 -9 0
v -10 -10 0
v -11 -10 0
v -11 -9 0
v -10 -9 0
v -9 -10 0
v -10 -10 0
v -10 -9 0
v -9 -9 0
v -8 -10 0
v -9 -10 0
v -9 -9 0
v -8 -9 0
v -7 -10 0
v -8 -10 0
v -8 -9 0
v -7 -9 0

# Texture cooridinates (Count = 4)
vt 0.7952756 0.5073892
vt 0.992126 0.5073892
vt 0.992126 1
vt 0.7952756 1

# Normal
vn 0 0 -1

# Mesh description
g Level_2_Ground_mesh_0029

# Faces
f 1/1/1 2/2/1 3/3/1 4/4/1
f 5/1/1 6/2/1 7/3/1 8/4/1
f 9/1/1 10/2/1 11/3/1 12/4/1
f 13/1/1 14/2/1 15/3/1 16/4/1
f 17/1/1 18/2/1 19/3/1 20/4/1

