# Tiled2Unity generated file. Do not modify by hand.
# Wavefront file for 'Level_2_Ground_mesh_0039.obj'

# Vertices (Count = 8)
v -15 -5 0
v -16 -5 0
v -16 -4 0
v -15 -4 0
v -14 -5 0
v -15 -5 0
v -15 -4 0
v -14 -4 0

# Texture cooridinates (Count = 8)
vt 0.7952756 0.009852231
vt 0.992126 0.009852231
vt 0.992126 0.502463
vt 0.7952756 0.502463
vt 0.1988189 0.009852231
vt 0.3956693 0.009852231
vt 0.3956693 0.502463
vt 0.1988189 0.502463

# Normal
vn 0 0 -1

# Mesh description
g Level_2_Ground_mesh_0039

# Faces
f 1/1/1 2/2/1 3/3/1 4/4/1
f 5/5/1 6/6/1 7/7/1 8/8/1

