# Tiled2Unity generated file. Do not modify by hand.
# Wavefront file for 'Level_2_Ground_mesh_0022.obj'

# Vertices (Count = 32)
v -4 -12 0
v -5 -12 0
v -5 -11 0
v -4 -11 0
v -3 -11 0
v -4 -11 0
v -4 -10 0
v -3 -10 0
v -4 -9 0
v -5 -9 0
v -5 -8 0
v -4 -8 0
v -3 -9 0
v -4 -9 0
v -4 -8 0
v -3 -8 0
v -4 -8 0
v -5 -8 0
v -5 -7 0
v -4 -7 0
v -3 -8 0
v -4 -8 0
v -4 -7 0
v -3 -7 0
v -4 -7 0
v -5 -7 0
v -5 -6 0
v -4 -6 0
v -3 -7 0
v -4 -7 0
v -4 -6 0
v -3 -6 0

# Texture cooridinates (Count = 16)
vt 0.5964567 0.5073892
vt 0.7933071 0.5073892
vt 0.7933071 1
vt 0.5964567 1
vt 0.3976378 0.5073892
vt 0.5944882 0.5073892
vt 0.5944882 1
vt 0.3976378 1
vt 0.5964567 0.009852231
vt 0.7933071 0.009852231
vt 0.7933071 0.502463
vt 0.5964567 0.502463
vt 0.1988189 0.009852231
vt 0.3956693 0.009852231
vt 0.3956693 0.502463
vt 0.1988189 0.502463

# Normal
vn 0 0 -1

# Mesh description
g Level_2_Ground_mesh_0022

# Faces
f 1/1/1 2/2/1 3/3/1 4/4/1
f 5/5/1 6/6/1 7/7/1 8/8/1
f 9/1/1 10/2/1 11/3/1 12/4/1
f 13/5/1 14/6/1 15/7/1 16/8/1
f 17/1/1 18/2/1 19/3/1 20/4/1
f 21/5/1 22/6/1 23/7/1 24/8/1
f 25/9/1 26/10/1 27/11/1 28/12/1
f 29/13/1 30/14/1 31/15/1 32/16/1

