# Tiled2Unity generated file. Do not modify by hand.
# Wavefront file for 'Level_2_Ground_mesh_0006.obj'

# Vertices (Count = 96)
v -7 -16 0
v -8 -16 0
v -8 -15 0
v -7 -15 0
v -6 -16 0
v -7 -16 0
v -7 -15 0
v -6 -15 0
v -5 -16 0
v -6 -16 0
v -6 -15 0
v -5 -15 0
v -4 -16 0
v -5 -16 0
v -5 -15 0
v -4 -15 0
v -3 -16 0
v -4 -16 0
v -4 -15 0
v -3 -15 0
v -2 -16 0
v -3 -16 0
v -3 -15 0
v -2 -15 0
v -1 -16 0
v -2 -16 0
v -2 -15 0
v -1 -15 0
v 0 -16 0
v -1 -16 0
v -1 -15 0
v 0 -15 0
v -7 -15 0
v -8 -15 0
v -8 -14 0
v -7 -14 0
v -6 -15 0
v -7 -15 0
v -7 -14 0
v -6 -14 0
v -5 -15 0
v -6 -15 0
v -6 -14 0
v -5 -14 0
v -4 -15 0
v -5 -15 0
v -5 -14 0
v -4 -14 0
v -3 -15 0
v -4 -15 0
v -4 -14 0
v -3 -14 0
v -2 -15 0
v -3 -15 0
v -3 -14 0
v -2 -14 0
v -1 -15 0
v -2 -15 0
v -2 -14 0
v -1 -14 0
v 0 -15 0
v -1 -15 0
v -1 -14 0
v 0 -14 0
v -7 -14 0
v -8 -14 0
v -8 -13 0
v -7 -13 0
v -6 -14 0
v -7 -14 0
v -7 -13 0
v -6 -13 0
v -5 -14 0
v -6 -14 0
v -6 -13 0
v -5 -13 0
v -4 -14 0
v -5 -14 0
v -5 -13 0
v -4 -13 0
v -3 -14 0
v -4 -14 0
v -4 -13 0
v -3 -13 0
v -2 -14 0
v -3 -14 0
v -3 -13 0
v -2 -13 0
v -1 -14 0
v -2 -14 0
v -2 -13 0
v -1 -13 0
v 0 -14 0
v -1 -14 0
v -1 -13 0
v 0 -13 0

# Texture cooridinates (Count = 8)
vt 0.3984221 0.009852231
vt 0.5956607 0.009852231
vt 0.5956607 0.502463
vt 0.3984221 0.502463
vt 0 0.009852231
vt 0.1972387 0.009852231
vt 0.1972387 0.502463
vt 0 0.502463

# Normal
vn 0 0 -1

# Mesh description
g Level_2_Ground_mesh_0006

# Faces
f 1/1/1 2/2/1 3/3/1 4/4/1
f 5/1/1 6/2/1 7/3/1 8/4/1
f 9/1/1 10/2/1 11/3/1 12/4/1
f 13/1/1 14/2/1 15/3/1 16/4/1
f 17/1/1 18/2/1 19/3/1 20/4/1
f 21/1/1 22/2/1 23/3/1 24/4/1
f 25/1/1 26/2/1 27/3/1 28/4/1
f 29/1/1 30/2/1 31/3/1 32/4/1
f 33/5/1 34/6/1 35/7/1 36/8/1
f 37/5/1 38/6/1 39/7/1 40/8/1
f 41/5/1 42/6/1 43/7/1 44/8/1
f 45/5/1 46/6/1 47/7/1 48/8/1
f 49/5/1 50/6/1 51/7/1 52/8/1
f 53/5/1 54/6/1 55/7/1 56/8/1
f 57/5/1 58/6/1 59/7/1 60/8/1
f 61/5/1 62/6/1 63/7/1 64/8/1
f 65/5/1 66/6/1 67/7/1 68/8/1
f 69/5/1 70/6/1 71/7/1 72/8/1
f 73/5/1 74/6/1 75/7/1 76/8/1
f 77/5/1 78/6/1 79/7/1 80/8/1
f 81/5/1 82/6/1 83/7/1 84/8/1
f 85/5/1 86/6/1 87/7/1 88/8/1
f 89/5/1 90/6/1 91/7/1 92/8/1
f 93/5/1 94/6/1 95/7/1 96/8/1

