# Tiled2Unity generated file. Do not modify by hand.
# Wavefront file for 'Level1_planet_mesh_0008.obj'

# Vertices (Count = 288)
v -15 -16 0
v -16 -16 0
v -16 -15 0
v -15 -15 0
v -14 -16 0
v -15 -16 0
v -15 -15 0
v -14 -15 0
v -13 -16 0
v -14 -16 0
v -14 -15 0
v -13 -15 0
v -12 -16 0
v -13 -16 0
v -13 -15 0
v -12 -15 0
v -11 -16 0
v -12 -16 0
v -12 -15 0
v -11 -15 0
v -10 -16 0
v -11 -16 0
v -11 -15 0
v -10 -15 0
v -9 -16 0
v -10 -16 0
v -10 -15 0
v -9 -15 0
v -8 -16 0
v -9 -16 0
v -9 -15 0
v -8 -15 0
v -7 -16 0
v -8 -16 0
v -8 -15 0
v -7 -15 0
v -6 -16 0
v -7 -16 0
v -7 -15 0
v -6 -15 0
v -5 -16 0
v -6 -16 0
v -6 -15 0
v -5 -15 0
v -4 -16 0
v -5 -16 0
v -5 -15 0
v -4 -15 0
v -15 -15 0
v -16 -15 0
v -16 -14 0
v -15 -14 0
v -14 -15 0
v -15 -15 0
v -15 -14 0
v -14 -14 0
v -13 -15 0
v -14 -15 0
v -14 -14 0
v -13 -14 0
v -12 -15 0
v -13 -15 0
v -13 -14 0
v -12 -14 0
v -11 -15 0
v -12 -15 0
v -12 -14 0
v -11 -14 0
v -10 -15 0
v -11 -15 0
v -11 -14 0
v -10 -14 0
v -9 -15 0
v -10 -15 0
v -10 -14 0
v -9 -14 0
v -8 -15 0
v -9 -15 0
v -9 -14 0
v -8 -14 0
v -7 -15 0
v -8 -15 0
v -8 -14 0
v -7 -14 0
v -6 -15 0
v -7 -15 0
v -7 -14 0
v -6 -14 0
v -5 -15 0
v -6 -15 0
v -6 -14 0
v -5 -14 0
v -4 -15 0
v -5 -15 0
v -5 -14 0
v -4 -14 0
v -15 -14 0
v -16 -14 0
v -16 -13 0
v -15 -13 0
v -14 -14 0
v -15 -14 0
v -15 -13 0
v -14 -13 0
v -13 -14 0
v -14 -14 0
v -14 -13 0
v -13 -13 0
v -12 -14 0
v -13 -14 0
v -13 -13 0
v -12 -13 0
v -11 -14 0
v -12 -14 0
v -12 -13 0
v -11 -13 0
v -10 -14 0
v -11 -14 0
v -11 -13 0
v -10 -13 0
v -9 -14 0
v -10 -14 0
v -10 -13 0
v -9 -13 0
v -8 -14 0
v -9 -14 0
v -9 -13 0
v -8 -13 0
v -7 -14 0
v -8 -14 0
v -8 -13 0
v -7 -13 0
v -6 -14 0
v -7 -14 0
v -7 -13 0
v -6 -13 0
v -5 -14 0
v -6 -14 0
v -6 -13 0
v -5 -13 0
v -4 -14 0
v -5 -14 0
v -5 -13 0
v -4 -13 0
v -15 -13 0
v -16 -13 0
v -16 -12 0
v -15 -12 0
v -14 -13 0
v -15 -13 0
v -15 -12 0
v -14 -12 0
v -13 -13 0
v -14 -13 0
v -14 -12 0
v -13 -12 0
v -12 -13 0
v -13 -13 0
v -13 -12 0
v -12 -12 0
v -11 -13 0
v -12 -13 0
v -12 -12 0
v -11 -12 0
v -10 -13 0
v -11 -13 0
v -11 -12 0
v -10 -12 0
v -9 -13 0
v -10 -13 0
v -10 -12 0
v -9 -12 0
v -8 -13 0
v -9 -13 0
v -9 -12 0
v -8 -12 0
v -7 -13 0
v -8 -13 0
v -8 -12 0
v -7 -12 0
v -6 -13 0
v -7 -13 0
v -7 -12 0
v -6 -12 0
v -5 -13 0
v -6 -13 0
v -6 -12 0
v -5 -12 0
v -4 -13 0
v -5 -13 0
v -5 -12 0
v -4 -12 0
v -15 -12 0
v -16 -12 0
v -16 -11 0
v -15 -11 0
v -14 -12 0
v -15 -12 0
v -15 -11 0
v -14 -11 0
v -13 -12 0
v -14 -12 0
v -14 -11 0
v -13 -11 0
v -12 -12 0
v -13 -12 0
v -13 -11 0
v -12 -11 0
v -11 -12 0
v -12 -12 0
v -12 -11 0
v -11 -11 0
v -10 -12 0
v -11 -12 0
v -11 -11 0
v -10 -11 0
v -9 -12 0
v -10 -12 0
v -10 -11 0
v -9 -11 0
v -8 -12 0
v -9 -12 0
v -9 -11 0
v -8 -11 0
v -7 -12 0
v -8 -12 0
v -8 -11 0
v -7 -11 0
v -6 -12 0
v -7 -12 0
v -7 -11 0
v -6 -11 0
v -5 -12 0
v -6 -12 0
v -6 -11 0
v -5 -11 0
v -4 -12 0
v -5 -12 0
v -5 -11 0
v -4 -11 0
v -15 -11 0
v -16 -11 0
v -16 -10 0
v -15 -10 0
v -14 -11 0
v -15 -11 0
v -15 -10 0
v -14 -10 0
v -13 -11 0
v -14 -11 0
v -14 -10 0
v -13 -10 0
v -12 -11 0
v -13 -11 0
v -13 -10 0
v -12 -10 0
v -11 -11 0
v -12 -11 0
v -12 -10 0
v -11 -10 0
v -10 -11 0
v -11 -11 0
v -11 -10 0
v -10 -10 0
v -9 -11 0
v -10 -11 0
v -10 -10 0
v -9 -10 0
v -8 -11 0
v -9 -11 0
v -9 -10 0
v -8 -10 0
v -7 -11 0
v -8 -11 0
v -8 -10 0
v -7 -10 0
v -6 -11 0
v -7 -11 0
v -7 -10 0
v -6 -10 0
v -5 -11 0
v -6 -11 0
v -6 -10 0
v -5 -10 0
v -4 -11 0
v -5 -11 0
v -5 -10 0
v -4 -10 0

# Texture cooridinates (Count = 28)
vt 0.8292683 0.2621359
vt 0.9918699 0.2621359
vt 0.9918699 0.5048544
vt 0.8292683 0.5048544
vt 0.497561 0.2621359
vt 0.6601626 0.2621359
vt 0.6601626 0.5048544
vt 0.497561 0.5048544
vt 0.1658537 0.2621359
vt 0.3284553 0.2621359
vt 0.3284553 0.5048544
vt 0.1658537 0.5048544
vt 0.3317073 0.2621359
vt 0.4943089 0.2621359
vt 0.4943089 0.5048544
vt 0.3317073 0.5048544
vt 0.6634147 0.2621359
vt 0.8260162 0.2621359
vt 0.8260162 0.5048544
vt 0.6634147 0.5048544
vt 0.3317073 0.5097088
vt 0.4943089 0.5097088
vt 0.4943089 0.7524272
vt 0.3317073 0.7524272
vt 0.3317073 0.7572815
vt 0.4943089 0.7572815
vt 0.4943089 1
vt 0.3317073 1

# Normal
vn 0 0 -1

# Mesh description
g Level1_planet_mesh_0008

# Faces
f 1/1/1 2/2/1 3/3/1 4/4/1
f 5/1/1 6/2/1 7/3/1 8/4/1
f 9/1/1 10/2/1 11/3/1 12/4/1
f 13/1/1 14/2/1 15/3/1 16/4/1
f 17/1/1 18/2/1 19/3/1 20/4/1
f 21/1/1 22/2/1 23/3/1 24/4/1
f 25/1/1 26/2/1 27/3/1 28/4/1
f 29/1/1 30/2/1 31/3/1 32/4/1
f 33/1/1 34/2/1 35/3/1 36/4/1
f 37/1/1 38/2/1 39/3/1 40/4/1
f 41/1/1 42/2/1 43/3/1 44/4/1
f 45/1/1 46/2/1 47/3/1 48/4/1
f 49/1/1 50/2/1 51/3/1 52/4/1
f 53/1/1 54/2/1 55/3/1 56/4/1
f 57/1/1 58/2/1 59/3/1 60/4/1
f 61/1/1 62/2/1 63/3/1 64/4/1
f 65/1/1 66/2/1 67/3/1 68/4/1
f 69/1/1 70/2/1 71/3/1 72/4/1
f 73/1/1 74/2/1 75/3/1 76/4/1
f 77/1/1 78/2/1 79/3/1 80/4/1
f 81/1/1 82/2/1 83/3/1 84/4/1
f 85/1/1 86/2/1 87/3/1 88/4/1
f 89/1/1 90/2/1 91/3/1 92/4/1
f 93/1/1 94/2/1 95/3/1 96/4/1
f 97/5/1 98/6/1 99/7/1 100/8/1
f 101/9/1 102/10/1 103/11/1 104/12/1
f 105/13/1 106/14/1 107/15/1 108/16/1
f 109/9/1 110/10/1 111/11/1 112/12/1
f 113/9/1 114/10/1 115/11/1 116/12/1
f 117/17/1 118/18/1 119/19/1 120/20/1
f 121/9/1 122/10/1 123/11/1 124/12/1
f 125/9/1 126/10/1 127/11/1 128/12/1
f 129/9/1 130/10/1 131/11/1 132/12/1
f 133/5/1 134/6/1 135/7/1 136/8/1
f 137/9/1 138/10/1 139/11/1 140/12/1
f 141/5/1 142/6/1 143/7/1 144/8/1
f 145/21/1 146/22/1 147/23/1 148/24/1
f 149/21/1 150/22/1 151/23/1 152/24/1
f 153/21/1 154/22/1 155/23/1 156/24/1
f 157/21/1 158/22/1 159/23/1 160/24/1
f 161/21/1 162/22/1 163/23/1 164/24/1
f 165/21/1 166/22/1 167/23/1 168/24/1
f 169/21/1 170/22/1 171/23/1 172/24/1
f 173/21/1 174/22/1 175/23/1 176/24/1
f 177/21/1 178/22/1 179/23/1 180/24/1
f 181/21/1 182/22/1 183/23/1 184/24/1
f 185/21/1 186/22/1 187/23/1 188/24/1
f 189/21/1 190/22/1 191/23/1 192/24/1
f 193/21/1 194/22/1 195/23/1 196/24/1
f 197/21/1 198/22/1 199/23/1 200/24/1
f 201/21/1 202/22/1 203/23/1 204/24/1
f 205/21/1 206/22/1 207/23/1 208/24/1
f 209/21/1 210/22/1 211/23/1 212/24/1
f 213/21/1 214/22/1 215/23/1 216/24/1
f 217/21/1 218/22/1 219/23/1 220/24/1
f 221/21/1 222/22/1 223/23/1 224/24/1
f 225/21/1 226/22/1 227/23/1 228/24/1
f 229/21/1 230/22/1 231/23/1 232/24/1
f 233/21/1 234/22/1 235/23/1 236/24/1
f 237/21/1 238/22/1 239/23/1 240/24/1
f 241/21/1 242/22/1 243/23/1 244/24/1
f 245/25/1 246/26/1 247/27/1 248/28/1
f 249/21/1 250/22/1 251/23/1 252/24/1
f 253/21/1 254/22/1 255/23/1 256/24/1
f 257/21/1 258/22/1 259/23/1 260/24/1
f 261/25/1 262/26/1 263/27/1 264/28/1
f 265/21/1 266/22/1 267/23/1 268/24/1
f 269/21/1 270/22/1 271/23/1 272/24/1
f 273/21/1 274/22/1 275/23/1 276/24/1
f 277/21/1 278/22/1 279/23/1 280/24/1
f 281/21/1 282/22/1 283/23/1 284/24/1
f 285/21/1 286/22/1 287/23/1 288/24/1

