# Tiled2Unity generated file. Do not modify by hand.
# Wavefront file for 'Level_1_Ground_mesh_0093.obj'

# Vertices (Count = 16)
v -9 -1 0
v -10 -1 0
v -10 0 0
v -9 0 0
v -8 -1 0
v -9 -1 0
v -9 0 0
v -8 0 0
v -7 -1 0
v -8 -1 0
v -8 0 0
v -7 0 0
v -6 -1 0
v -7 -1 0
v -7 0 0
v -6 0 0

# Texture cooridinates (Count = 4)
vt 0.8292683 0.2621359
vt 0.9918699 0.2621359
vt 0.9918699 0.5048544
vt 0.8292683 0.5048544

# Normal
vn 0 0 -1

# Mesh description
g Level_1_Ground_mesh_0093

# Faces
f 1/1/1 2/2/1 3/3/1 4/4/1
f 5/1/1 6/2/1 7/3/1 8/4/1
f 9/1/1 10/2/1 11/3/1 12/4/1
f 13/1/1 14/2/1 15/3/1 16/4/1

