# Tiled2Unity generated file. Do not modify by hand.
# Wavefront file for 'Level_1_Ground_mesh_0045.obj'

# Vertices (Count = 16)
v -9 -14 0
v -10 -14 0
v -10 -13 0
v -9 -13 0
v -8 -14 0
v -9 -14 0
v -9 -13 0
v -8 -13 0
v -7 -14 0
v -8 -14 0
v -8 -13 0
v -7 -13 0
v -6 -14 0
v -7 -14 0
v -7 -13 0
v -6 -13 0

# Texture cooridinates (Count = 8)
vt 0.3317073 0.2621359
vt 0.4943089 0.2621359
vt 0.4943089 0.5048544
vt 0.3317073 0.5048544
vt 0.1658537 0.2621359
vt 0.3284553 0.2621359
vt 0.3284553 0.5048544
vt 0.1658537 0.5048544

# Normal
vn 0 0 -1

# Mesh description
g Level_1_Ground_mesh_0045

# Faces
f 1/1/1 2/2/1 3/3/1 4/4/1
f 5/5/1 6/6/1 7/7/1 8/8/1
f 9/5/1 10/6/1 11/7/1 12/8/1
f 13/1/1 14/2/1 15/3/1 16/4/1

