# Tiled2Unity generated file. Do not modify by hand.
# Wavefront file for 'Level_1_Ground_mesh_0043.obj'

# Vertices (Count = 24)
v -14 -14 0
v -15 -14 0
v -15 -13 0
v -14 -13 0
v -13 -14 0
v -14 -14 0
v -14 -13 0
v -13 -13 0
v -12 -14 0
v -13 -14 0
v -13 -13 0
v -12 -13 0
v -11 -14 0
v -12 -14 0
v -12 -13 0
v -11 -13 0
v -3 -14 0
v -4 -14 0
v -4 -13 0
v -3 -13 0
v 0 -14 0
v -1 -14 0
v -1 -13 0
v 0 -13 0

# Texture cooridinates (Count = 8)
vt 0.3317073 0.2621359
vt 0.4943089 0.2621359
vt 0.4943089 0.5048544
vt 0.3317073 0.5048544
vt 0.1658537 0.2621359
vt 0.3284553 0.2621359
vt 0.3284553 0.5048544
vt 0.1658537 0.5048544

# Normal
vn 0 0 -1

# Mesh description
g Level_1_Ground_mesh_0043

# Faces
f 1/1/1 2/2/1 3/3/1 4/4/1
f 5/5/1 6/6/1 7/7/1 8/8/1
f 9/1/1 10/2/1 11/3/1 12/4/1
f 13/1/1 14/2/1 15/3/1 16/4/1
f 17/1/1 18/2/1 19/3/1 20/4/1
f 21/1/1 22/2/1 23/3/1 24/4/1

