# Tiled2Unity generated file. Do not modify by hand.
# Wavefront file for 'Level_2_Ground_New_mesh_0089.obj'

# Vertices (Count = 520)
v -15 -10 0
v -16 -10 0
v -16 -9 0
v -15 -9 0
v -14 -10 0
v -15 -10 0
v -15 -9 0
v -14 -9 0
v -13 -10 0
v -14 -10 0
v -14 -9 0
v -13 -9 0
v -12 -10 0
v -13 -10 0
v -13 -9 0
v -12 -9 0
v -11 -10 0
v -12 -10 0
v -12 -9 0
v -11 -9 0
v -10 -10 0
v -11 -10 0
v -11 -9 0
v -10 -9 0
v -9 -10 0
v -10 -10 0
v -10 -9 0
v -9 -9 0
v -15 -9 0
v -16 -9 0
v -16 -8 0
v -15 -8 0
v -14 -9 0
v -15 -9 0
v -15 -8 0
v -14 -8 0
v -13 -9 0
v -14 -9 0
v -14 -8 0
v -13 -8 0
v -12 -9 0
v -13 -9 0
v -13 -8 0
v -12 -8 0
v -11 -9 0
v -12 -9 0
v -12 -8 0
v -11 -8 0
v -10 -9 0
v -11 -9 0
v -11 -8 0
v -10 -8 0
v -9 -9 0
v -10 -9 0
v -10 -8 0
v -9 -8 0
v -8 -9 0
v -9 -9 0
v -9 -8 0
v -8 -8 0
v -15 -8 0
v -16 -8 0
v -16 -7 0
v -15 -7 0
v -14 -8 0
v -15 -8 0
v -15 -7 0
v -14 -7 0
v -13 -8 0
v -14 -8 0
v -14 -7 0
v -13 -7 0
v -12 -8 0
v -13 -8 0
v -13 -7 0
v -12 -7 0
v -11 -8 0
v -12 -8 0
v -12 -7 0
v -11 -7 0
v -10 -8 0
v -11 -8 0
v -11 -7 0
v -10 -7 0
v -9 -8 0
v -10 -8 0
v -10 -7 0
v -9 -7 0
v -8 -8 0
v -9 -8 0
v -9 -7 0
v -8 -7 0
v -7 -8 0
v -8 -8 0
v -8 -7 0
v -7 -7 0
v -15 -7 0
v -16 -7 0
v -16 -6 0
v -15 -6 0
v -14 -7 0
v -15 -7 0
v -15 -6 0
v -14 -6 0
v -13 -7 0
v -14 -7 0
v -14 -6 0
v -13 -6 0
v -12 -7 0
v -13 -7 0
v -13 -6 0
v -12 -6 0
v -11 -7 0
v -12 -7 0
v -12 -6 0
v -11 -6 0
v -10 -7 0
v -11 -7 0
v -11 -6 0
v -10 -6 0
v -9 -7 0
v -10 -7 0
v -10 -6 0
v -9 -6 0
v -8 -7 0
v -9 -7 0
v -9 -6 0
v -8 -6 0
v -7 -7 0
v -8 -7 0
v -8 -6 0
v -7 -6 0
v -6 -7 0
v -7 -7 0
v -7 -6 0
v -6 -6 0
v -15 -6 0
v -16 -6 0
v -16 -5 0
v -15 -5 0
v -14 -6 0
v -15 -6 0
v -15 -5 0
v -14 -5 0
v -13 -6 0
v -14 -6 0
v -14 -5 0
v -13 -5 0
v -12 -6 0
v -13 -6 0
v -13 -5 0
v -12 -5 0
v -11 -6 0
v -12 -6 0
v -12 -5 0
v -11 -5 0
v -10 -6 0
v -11 -6 0
v -11 -5 0
v -10 -5 0
v -9 -6 0
v -10 -6 0
v -10 -5 0
v -9 -5 0
v -8 -6 0
v -9 -6 0
v -9 -5 0
v -8 -5 0
v -7 -6 0
v -8 -6 0
v -8 -5 0
v -7 -5 0
v -6 -6 0
v -7 -6 0
v -7 -5 0
v -6 -5 0
v -5 -6 0
v -6 -6 0
v -6 -5 0
v -5 -5 0
v -4 -6 0
v -5 -6 0
v -5 -5 0
v -4 -5 0
v -3 -6 0
v -4 -6 0
v -4 -5 0
v -3 -5 0
v -2 -6 0
v -3 -6 0
v -3 -5 0
v -2 -5 0
v -1 -6 0
v -2 -6 0
v -2 -5 0
v -1 -5 0
v 0 -6 0
v -1 -6 0
v -1 -5 0
v 0 -5 0
v -15 -5 0
v -16 -5 0
v -16 -4 0
v -15 -4 0
v -14 -5 0
v -15 -5 0
v -15 -4 0
v -14 -4 0
v -13 -5 0
v -14 -5 0
v -14 -4 0
v -13 -4 0
v -12 -5 0
v -13 -5 0
v -13 -4 0
v -12 -4 0
v -11 -5 0
v -12 -5 0
v -12 -4 0
v -11 -4 0
v -10 -5 0
v -11 -5 0
v -11 -4 0
v -10 -4 0
v -9 -5 0
v -10 -5 0
v -10 -4 0
v -9 -4 0
v -8 -5 0
v -9 -5 0
v -9 -4 0
v -8 -4 0
v -7 -5 0
v -8 -5 0
v -8 -4 0
v -7 -4 0
v -6 -5 0
v -7 -5 0
v -7 -4 0
v -6 -4 0
v -5 -5 0
v -6 -5 0
v -6 -4 0
v -5 -4 0
v -4 -5 0
v -5 -5 0
v -5 -4 0
v -4 -4 0
v -3 -5 0
v -4 -5 0
v -4 -4 0
v -3 -4 0
v -2 -5 0
v -3 -5 0
v -3 -4 0
v -2 -4 0
v -1 -5 0
v -2 -5 0
v -2 -4 0
v -1 -4 0
v 0 -5 0
v -1 -5 0
v -1 -4 0
v 0 -4 0
v -15 -4 0
v -16 -4 0
v -16 -3 0
v -15 -3 0
v -14 -4 0
v -15 -4 0
v -15 -3 0
v -14 -3 0
v -13 -4 0
v -14 -4 0
v -14 -3 0
v -13 -3 0
v -12 -4 0
v -13 -4 0
v -13 -3 0
v -12 -3 0
v -11 -4 0
v -12 -4 0
v -12 -3 0
v -11 -3 0
v -10 -4 0
v -11 -4 0
v -11 -3 0
v -10 -3 0
v -9 -4 0
v -10 -4 0
v -10 -3 0
v -9 -3 0
v -8 -4 0
v -9 -4 0
v -9 -3 0
v -8 -3 0
v -7 -4 0
v -8 -4 0
v -8 -3 0
v -7 -3 0
v -6 -4 0
v -7 -4 0
v -7 -3 0
v -6 -3 0
v -5 -4 0
v -6 -4 0
v -6 -3 0
v -5 -3 0
v -4 -4 0
v -5 -4 0
v -5 -3 0
v -4 -3 0
v -3 -4 0
v -4 -4 0
v -4 -3 0
v -3 -3 0
v -2 -4 0
v -3 -4 0
v -3 -3 0
v -2 -3 0
v -1 -4 0
v -2 -4 0
v -2 -3 0
v -1 -3 0
v 0 -4 0
v -1 -4 0
v -1 -3 0
v 0 -3 0
v -15 -3 0
v -16 -3 0
v -16 -2 0
v -15 -2 0
v -14 -3 0
v -15 -3 0
v -15 -2 0
v -14 -2 0
v -13 -3 0
v -14 -3 0
v -14 -2 0
v -13 -2 0
v -12 -3 0
v -13 -3 0
v -13 -2 0
v -12 -2 0
v -11 -3 0
v -12 -3 0
v -12 -2 0
v -11 -2 0
v -10 -3 0
v -11 -3 0
v -11 -2 0
v -10 -2 0
v -9 -3 0
v -10 -3 0
v -10 -2 0
v -9 -2 0
v -8 -3 0
v -9 -3 0
v -9 -2 0
v -8 -2 0
v -7 -3 0
v -8 -3 0
v -8 -2 0
v -7 -2 0
v -6 -3 0
v -7 -3 0
v -7 -2 0
v -6 -2 0
v -5 -3 0
v -6 -3 0
v -6 -2 0
v -5 -2 0
v -4 -3 0
v -5 -3 0
v -5 -2 0
v -4 -2 0
v -3 -3 0
v -4 -3 0
v -4 -2 0
v -3 -2 0
v -2 -3 0
v -3 -3 0
v -3 -2 0
v -2 -2 0
v -1 -3 0
v -2 -3 0
v -2 -2 0
v -1 -2 0
v 0 -3 0
v -1 -3 0
v -1 -2 0
v 0 -2 0
v -15 -2 0
v -16 -2 0
v -16 -1 0
v -15 -1 0
v -14 -2 0
v -15 -2 0
v -15 -1 0
v -14 -1 0
v -13 -2 0
v -14 -2 0
v -14 -1 0
v -13 -1 0
v -12 -2 0
v -13 -2 0
v -13 -1 0
v -12 -1 0
v -11 -2 0
v -12 -2 0
v -12 -1 0
v -11 -1 0
v -10 -2 0
v -11 -2 0
v -11 -1 0
v -10 -1 0
v -9 -2 0
v -10 -2 0
v -10 -1 0
v -9 -1 0
v -8 -2 0
v -9 -2 0
v -9 -1 0
v -8 -1 0
v -7 -2 0
v -8 -2 0
v -8 -1 0
v -7 -1 0
v -6 -2 0
v -7 -2 0
v -7 -1 0
v -6 -1 0
v -5 -2 0
v -6 -2 0
v -6 -1 0
v -5 -1 0
v -4 -2 0
v -5 -2 0
v -5 -1 0
v -4 -1 0
v -3 -2 0
v -4 -2 0
v -4 -1 0
v -3 -1 0
v -2 -2 0
v -3 -2 0
v -3 -1 0
v -2 -1 0
v -1 -2 0
v -2 -2 0
v -2 -1 0
v -1 -1 0
v 0 -2 0
v -1 -2 0
v -1 -1 0
v 0 -1 0
v -15 -1 0
v -16 -1 0
v -16 0 0
v -15 0 0
v -14 -1 0
v -15 -1 0
v -15 0 0
v -14 0 0
v -13 -1 0
v -14 -1 0
v -14 0 0
v -13 0 0
v -12 -1 0
v -13 -1 0
v -13 0 0
v -12 0 0
v -11 -1 0
v -12 -1 0
v -12 0 0
v -11 0 0
v -10 -1 0
v -11 -1 0
v -11 0 0
v -10 0 0
v -9 -1 0
v -10 -1 0
v -10 0 0
v -9 0 0
v -8 -1 0
v -9 -1 0
v -9 0 0
v -8 0 0
v -7 -1 0
v -8 -1 0
v -8 0 0
v -7 0 0
v -6 -1 0
v -7 -1 0
v -7 0 0
v -6 0 0
v -5 -1 0
v -6 -1 0
v -6 0 0
v -5 0 0
v -4 -1 0
v -5 -1 0
v -5 0 0
v -4 0 0
v -3 -1 0
v -4 -1 0
v -4 0 0
v -3 0 0
v -2 -1 0
v -3 -1 0
v -3 0 0
v -2 0 0
v -1 -1 0
v -2 -1 0
v -2 0 0
v -1 0 0
v 0 -1 0
v -1 -1 0
v -1 0 0
v 0 0 0

# Texture cooridinates (Count = 28)
vt 0.5976331 0.009852231
vt 0.7948718 0.009852231
vt 0.7948718 0.502463
vt 0.5976331 0.502463
vt 0.199211 0.009852231
vt 0.3964497 0.009852231
vt 0.3964497 0.502463
vt 0.199211 0.502463
vt 0.7968442 0.5073892
vt 0.9940829 0.5073892
vt 0.9940829 1
vt 0.7968442 1
vt 0 0.5073892
vt 0.1972387 0.5073892
vt 0.1972387 1
vt 0 1
vt 0.7968442 0.009852231
vt 0.9940829 0.009852231
vt 0.9940829 0.502463
vt 0.7968442 0.502463
vt 0.3984221 0.009852231
vt 0.5956607 0.009852231
vt 0.5956607 0.502463
vt 0.3984221 0.502463
vt 0 0.009852231
vt 0.1972387 0.009852231
vt 0.1972387 0.502463
vt 0 0.502463

# Normal
vn 0 0 -1

# Mesh description
g Level_2_Ground_New_mesh_0089

# Faces
f 1/1/1 2/2/1 3/3/1 4/4/1
f 5/1/1 6/2/1 7/3/1 8/4/1
f 9/1/1 10/2/1 11/3/1 12/4/1
f 13/1/1 14/2/1 15/3/1 16/4/1
f 17/1/1 18/2/1 19/3/1 20/4/1
f 21/1/1 22/2/1 23/3/1 24/4/1
f 25/5/1 26/6/1 27/7/1 28/8/1
f 29/9/1 30/10/1 31/11/1 32/12/1
f 33/9/1 34/10/1 35/11/1 36/12/1
f 37/9/1 38/10/1 39/11/1 40/12/1
f 41/9/1 42/10/1 43/11/1 44/12/1
f 45/9/1 46/10/1 47/11/1 48/12/1
f 49/9/1 50/10/1 51/11/1 52/12/1
f 53/13/1 54/14/1 55/15/1 56/16/1
f 57/5/1 58/6/1 59/7/1 60/8/1
f 61/9/1 62/10/1 63/11/1 64/12/1
f 65/9/1 66/10/1 67/11/1 68/12/1
f 69/9/1 70/10/1 71/11/1 72/12/1
f 73/9/1 74/10/1 75/11/1 76/12/1
f 77/9/1 78/10/1 79/11/1 80/12/1
f 81/9/1 82/10/1 83/11/1 84/12/1
f 85/9/1 86/10/1 87/11/1 88/12/1
f 89/13/1 90/14/1 91/15/1 92/16/1
f 93/5/1 94/6/1 95/7/1 96/8/1
f 97/9/1 98/10/1 99/11/1 100/12/1
f 101/9/1 102/10/1 103/11/1 104/12/1
f 105/9/1 106/10/1 107/11/1 108/12/1
f 109/9/1 110/10/1 111/11/1 112/12/1
f 113/9/1 114/10/1 115/11/1 116/12/1
f 117/9/1 118/10/1 119/11/1 120/12/1
f 121/9/1 122/10/1 123/11/1 124/12/1
f 125/9/1 126/10/1 127/11/1 128/12/1
f 129/13/1 130/14/1 131/15/1 132/16/1
f 133/5/1 134/6/1 135/7/1 136/8/1
f 137/9/1 138/10/1 139/11/1 140/12/1
f 141/9/1 142/10/1 143/11/1 144/12/1
f 145/9/1 146/10/1 147/11/1 148/12/1
f 149/9/1 150/10/1 151/11/1 152/12/1
f 153/9/1 154/10/1 155/11/1 156/12/1
f 157/9/1 158/10/1 159/11/1 160/12/1
f 161/9/1 162/10/1 163/11/1 164/12/1
f 165/9/1 166/10/1 167/11/1 168/12/1
f 169/9/1 170/10/1 171/11/1 172/12/1
f 173/13/1 174/14/1 175/15/1 176/16/1
f 177/17/1 178/18/1 179/19/1 180/20/1
f 181/17/1 182/18/1 183/19/1 184/20/1
f 185/17/1 186/18/1 187/19/1 188/20/1
f 189/17/1 190/18/1 191/19/1 192/20/1
f 193/17/1 194/18/1 195/19/1 196/20/1
f 197/17/1 198/18/1 199/19/1 200/20/1
f 201/9/1 202/10/1 203/11/1 204/12/1
f 205/9/1 206/10/1 207/11/1 208/12/1
f 209/9/1 210/10/1 211/11/1 212/12/1
f 213/9/1 214/10/1 215/11/1 216/12/1
f 217/9/1 218/10/1 219/11/1 220/12/1
f 221/9/1 222/10/1 223/11/1 224/12/1
f 225/9/1 226/10/1 227/11/1 228/12/1
f 229/9/1 230/10/1 231/11/1 232/12/1
f 233/9/1 234/10/1 235/11/1 236/12/1
f 237/9/1 238/10/1 239/11/1 240/12/1
f 241/9/1 242/10/1 243/11/1 244/12/1
f 245/9/1 246/10/1 247/11/1 248/12/1
f 249/9/1 250/10/1 251/11/1 252/12/1
f 253/9/1 254/10/1 255/11/1 256/12/1
f 257/9/1 258/10/1 259/11/1 260/12/1
f 261/9/1 262/10/1 263/11/1 264/12/1
f 265/9/1 266/10/1 267/11/1 268/12/1
f 269/9/1 270/10/1 271/11/1 272/12/1
f 273/9/1 274/10/1 275/11/1 276/12/1
f 277/9/1 278/10/1 279/11/1 280/12/1
f 281/9/1 282/10/1 283/11/1 284/12/1
f 285/9/1 286/10/1 287/11/1 288/12/1
f 289/9/1 290/10/1 291/11/1 292/12/1
f 293/9/1 294/10/1 295/11/1 296/12/1
f 297/9/1 298/10/1 299/11/1 300/12/1
f 301/9/1 302/10/1 303/11/1 304/12/1
f 305/9/1 306/10/1 307/11/1 308/12/1
f 309/9/1 310/10/1 311/11/1 312/12/1
f 313/9/1 314/10/1 315/11/1 316/12/1
f 317/9/1 318/10/1 319/11/1 320/12/1
f 321/9/1 322/10/1 323/11/1 324/12/1
f 325/9/1 326/10/1 327/11/1 328/12/1
f 329/9/1 330/10/1 331/11/1 332/12/1
f 333/9/1 334/10/1 335/11/1 336/12/1
f 337/9/1 338/10/1 339/11/1 340/12/1
f 341/9/1 342/10/1 343/11/1 344/12/1
f 345/9/1 346/10/1 347/11/1 348/12/1
f 349/9/1 350/10/1 351/11/1 352/12/1
f 353/9/1 354/10/1 355/11/1 356/12/1
f 357/9/1 358/10/1 359/11/1 360/12/1
f 361/9/1 362/10/1 363/11/1 364/12/1
f 365/9/1 366/10/1 367/11/1 368/12/1
f 369/9/1 370/10/1 371/11/1 372/12/1
f 373/9/1 374/10/1 375/11/1 376/12/1
f 377/9/1 378/10/1 379/11/1 380/12/1
f 381/9/1 382/10/1 383/11/1 384/12/1
f 385/9/1 386/10/1 387/11/1 388/12/1
f 389/9/1 390/10/1 391/11/1 392/12/1
f 393/21/1 394/22/1 395/23/1 396/24/1
f 397/21/1 398/22/1 399/23/1 400/24/1
f 401/21/1 402/22/1 403/23/1 404/24/1
f 405/21/1 406/22/1 407/23/1 408/24/1
f 409/21/1 410/22/1 411/23/1 412/24/1
f 413/21/1 414/22/1 415/23/1 416/24/1
f 417/21/1 418/22/1 419/23/1 420/24/1
f 421/21/1 422/22/1 423/23/1 424/24/1
f 425/21/1 426/22/1 427/23/1 428/24/1
f 429/21/1 430/22/1 431/23/1 432/24/1
f 433/21/1 434/22/1 435/23/1 436/24/1
f 437/21/1 438/22/1 439/23/1 440/24/1
f 441/21/1 442/22/1 443/23/1 444/24/1
f 445/21/1 446/22/1 447/23/1 448/24/1
f 449/21/1 450/22/1 451/23/1 452/24/1
f 453/21/1 454/22/1 455/23/1 456/24/1
f 457/25/1 458/26/1 459/27/1 460/28/1
f 461/25/1 462/26/1 463/27/1 464/28/1
f 465/25/1 466/26/1 467/27/1 468/28/1
f 469/25/1 470/26/1 471/27/1 472/28/1
f 473/25/1 474/26/1 475/27/1 476/28/1
f 477/25/1 478/26/1 479/27/1 480/28/1
f 481/25/1 482/26/1 483/27/1 484/28/1
f 485/25/1 486/26/1 487/27/1 488/28/1
f 489/25/1 490/26/1 491/27/1 492/28/1
f 493/25/1 494/26/1 495/27/1 496/28/1
f 497/25/1 498/26/1 499/27/1 500/28/1
f 501/25/1 502/26/1 503/27/1 504/28/1
f 505/25/1 506/26/1 507/27/1 508/28/1
f 509/25/1 510/26/1 511/27/1 512/28/1
f 513/25/1 514/26/1 515/27/1 516/28/1
f 517/25/1 518/26/1 519/27/1 520/28/1

