# Tiled2Unity generated file. Do not modify by hand.
# Wavefront file for 'Level_2_Ground_New_mesh_0029.obj'

# Vertices (Count = 316)
v -7 -16 0
v -8 -16 0
v -8 -15 0
v -7 -15 0
v -6 -16 0
v -7 -16 0
v -7 -15 0
v -6 -15 0
v -5 -16 0
v -6 -16 0
v -6 -15 0
v -5 -15 0
v -7 -15 0
v -8 -15 0
v -8 -14 0
v -7 -14 0
v -6 -15 0
v -7 -15 0
v -7 -14 0
v -6 -14 0
v -5 -15 0
v -6 -15 0
v -6 -14 0
v -5 -14 0
v -15 -14 0
v -16 -14 0
v -16 -13 0
v -15 -13 0
v -13 -14 0
v -14 -14 0
v -14 -13 0
v -13 -13 0
v -11 -14 0
v -12 -14 0
v -12 -13 0
v -11 -13 0
v -9 -14 0
v -10 -14 0
v -10 -13 0
v -9 -13 0
v -7 -14 0
v -8 -14 0
v -8 -13 0
v -7 -13 0
v -6 -14 0
v -7 -14 0
v -7 -13 0
v -6 -13 0
v -5 -14 0
v -6 -14 0
v -6 -13 0
v -5 -13 0
v -15 -13 0
v -16 -13 0
v -16 -12 0
v -15 -12 0
v -13 -13 0
v -14 -13 0
v -14 -12 0
v -13 -12 0
v -11 -13 0
v -12 -13 0
v -12 -12 0
v -11 -12 0
v -9 -13 0
v -10 -13 0
v -10 -12 0
v -9 -12 0
v -7 -13 0
v -8 -13 0
v -8 -12 0
v -7 -12 0
v -6 -13 0
v -7 -13 0
v -7 -12 0
v -6 -12 0
v -5 -13 0
v -6 -13 0
v -6 -12 0
v -5 -12 0
v -7 -12 0
v -8 -12 0
v -8 -11 0
v -7 -11 0
v -6 -12 0
v -7 -12 0
v -7 -11 0
v -6 -11 0
v -5 -12 0
v -6 -12 0
v -6 -11 0
v -5 -11 0
v -7 -11 0
v -8 -11 0
v -8 -10 0
v -7 -10 0
v -6 -11 0
v -7 -11 0
v -7 -10 0
v -6 -10 0
v -5 -11 0
v -6 -11 0
v -6 -10 0
v -5 -10 0
v -7 -10 0
v -8 -10 0
v -8 -9 0
v -7 -9 0
v -6 -10 0
v -7 -10 0
v -7 -9 0
v -6 -9 0
v -5 -10 0
v -6 -10 0
v -6 -9 0
v -5 -9 0
v -7 -9 0
v -8 -9 0
v -8 -8 0
v -7 -8 0
v -6 -9 0
v -7 -9 0
v -7 -8 0
v -6 -8 0
v -5 -9 0
v -6 -9 0
v -6 -8 0
v -5 -8 0
v -7 -8 0
v -8 -8 0
v -8 -7 0
v -7 -7 0
v -6 -8 0
v -7 -8 0
v -7 -7 0
v -6 -7 0
v -5 -8 0
v -6 -8 0
v -6 -7 0
v -5 -7 0
v -7 -7 0
v -8 -7 0
v -8 -6 0
v -7 -6 0
v -6 -7 0
v -7 -7 0
v -7 -6 0
v -6 -6 0
v -5 -7 0
v -6 -7 0
v -6 -6 0
v -5 -6 0
v -7 -6 0
v -8 -6 0
v -8 -5 0
v -7 -5 0
v -6 -6 0
v -7 -6 0
v -7 -5 0
v -6 -5 0
v -5 -6 0
v -6 -6 0
v -6 -5 0
v -5 -5 0
v -7 -5 0
v -8 -5 0
v -8 -4 0
v -7 -4 0
v -6 -5 0
v -7 -5 0
v -7 -4 0
v -6 -4 0
v -5 -5 0
v -6 -5 0
v -6 -4 0
v -5 -4 0
v -7 -4 0
v -8 -4 0
v -8 -3 0
v -7 -3 0
v -6 -4 0
v -7 -4 0
v -7 -3 0
v -6 -3 0
v -5 -4 0
v -6 -4 0
v -6 -3 0
v -5 -3 0
v -7 -3 0
v -8 -3 0
v -8 -2 0
v -7 -2 0
v -6 -3 0
v -7 -3 0
v -7 -2 0
v -6 -2 0
v -5 -3 0
v -6 -3 0
v -6 -2 0
v -5 -2 0
v -4 -3 0
v -5 -3 0
v -5 -2 0
v -4 -2 0
v -3 -3 0
v -4 -3 0
v -4 -2 0
v -3 -2 0
v -2 -3 0
v -3 -3 0
v -3 -2 0
v -2 -2 0
v -1 -3 0
v -2 -3 0
v -2 -2 0
v -1 -2 0
v 0 -3 0
v -1 -3 0
v -1 -2 0
v 0 -2 0
v -15 -2 0
v -16 -2 0
v -16 -1 0
v -15 -1 0
v -13 -2 0
v -14 -2 0
v -14 -1 0
v -13 -1 0
v -11 -2 0
v -12 -2 0
v -12 -1 0
v -11 -1 0
v -9 -2 0
v -10 -2 0
v -10 -1 0
v -9 -1 0
v -7 -2 0
v -8 -2 0
v -8 -1 0
v -7 -1 0
v -6 -2 0
v -7 -2 0
v -7 -1 0
v -6 -1 0
v -5 -2 0
v -6 -2 0
v -6 -1 0
v -5 -1 0
v -4 -2 0
v -5 -2 0
v -5 -1 0
v -4 -1 0
v -3 -2 0
v -4 -2 0
v -4 -1 0
v -3 -1 0
v -2 -2 0
v -3 -2 0
v -3 -1 0
v -2 -1 0
v -1 -2 0
v -2 -2 0
v -2 -1 0
v -1 -1 0
v 0 -2 0
v -1 -2 0
v -1 -1 0
v 0 -1 0
v -15 -1 0
v -16 -1 0
v -16 0 0
v -15 0 0
v -13 -1 0
v -14 -1 0
v -14 0 0
v -13 0 0
v -11 -1 0
v -12 -1 0
v -12 0 0
v -11 0 0
v -9 -1 0
v -10 -1 0
v -10 0 0
v -9 0 0
v -7 -1 0
v -8 -1 0
v -8 0 0
v -7 0 0
v -6 -1 0
v -7 -1 0
v -7 0 0
v -6 0 0
v -5 -1 0
v -6 -1 0
v -6 0 0
v -5 0 0
v -4 -1 0
v -5 -1 0
v -5 0 0
v -4 0 0
v -3 -1 0
v -4 -1 0
v -4 0 0
v -3 0 0
v -2 -1 0
v -3 -1 0
v -3 0 0
v -2 0 0
v -1 -1 0
v -2 -1 0
v -2 0 0
v -1 0 0
v 0 -1 0
v -1 -1 0
v -1 0 0
v 0 0 0

# Texture cooridinates (Count = 16)
vt 0.7968442 0.5073892
vt 0.9940829 0.5073892
vt 0.9940829 1
vt 0.7968442 1
vt 0.3984221 0.5073892
vt 0.5956607 0.5073892
vt 0.5956607 1
vt 0.3984221 1
vt 0 0.5073892
vt 0.1972387 0.5073892
vt 0.1972387 1
vt 0 1
vt 0.7968442 0.009852231
vt 0.9940829 0.009852231
vt 0.9940829 0.502463
vt 0.7968442 0.502463

# Normal
vn 0 0 -1

# Mesh description
g Level_2_Ground_New_mesh_0029

# Faces
f 1/1/1 2/2/1 3/3/1 4/4/1
f 5/1/1 6/2/1 7/3/1 8/4/1
f 9/5/1 10/6/1 11/7/1 12/8/1
f 13/1/1 14/2/1 15/3/1 16/4/1
f 17/1/1 18/2/1 19/3/1 20/4/1
f 21/5/1 22/6/1 23/7/1 24/8/1
f 25/1/1 26/2/1 27/3/1 28/4/1
f 29/1/1 30/2/1 31/3/1 32/4/1
f 33/1/1 34/2/1 35/3/1 36/4/1
f 37/1/1 38/2/1 39/3/1 40/4/1
f 41/1/1 42/2/1 43/3/1 44/4/1
f 45/1/1 46/2/1 47/3/1 48/4/1
f 49/5/1 50/6/1 51/7/1 52/8/1
f 53/1/1 54/2/1 55/3/1 56/4/1
f 57/1/1 58/2/1 59/3/1 60/4/1
f 61/1/1 62/2/1 63/3/1 64/4/1
f 65/1/1 66/2/1 67/3/1 68/4/1
f 69/1/1 70/2/1 71/3/1 72/4/1
f 73/1/1 74/2/1 75/3/1 76/4/1
f 77/5/1 78/6/1 79/7/1 80/8/1
f 81/1/1 82/2/1 83/3/1 84/4/1
f 85/1/1 86/2/1 87/3/1 88/4/1
f 89/5/1 90/6/1 91/7/1 92/8/1
f 93/1/1 94/2/1 95/3/1 96/4/1
f 97/1/1 98/2/1 99/3/1 100/4/1
f 101/5/1 102/6/1 103/7/1 104/8/1
f 105/1/1 106/2/1 107/3/1 108/4/1
f 109/1/1 110/2/1 111/3/1 112/4/1
f 113/5/1 114/6/1 115/7/1 116/8/1
f 117/1/1 118/2/1 119/3/1 120/4/1
f 121/1/1 122/2/1 123/3/1 124/4/1
f 125/5/1 126/6/1 127/7/1 128/8/1
f 129/1/1 130/2/1 131/3/1 132/4/1
f 133/1/1 134/2/1 135/3/1 136/4/1
f 137/5/1 138/6/1 139/7/1 140/8/1
f 141/1/1 142/2/1 143/3/1 144/4/1
f 145/1/1 146/2/1 147/3/1 148/4/1
f 149/5/1 150/6/1 151/7/1 152/8/1
f 153/1/1 154/2/1 155/3/1 156/4/1
f 157/1/1 158/2/1 159/3/1 160/4/1
f 161/5/1 162/6/1 163/7/1 164/8/1
f 165/1/1 166/2/1 167/3/1 168/4/1
f 169/1/1 170/2/1 171/3/1 172/4/1
f 173/5/1 174/6/1 175/7/1 176/8/1
f 177/1/1 178/2/1 179/3/1 180/4/1
f 181/1/1 182/2/1 183/3/1 184/4/1
f 185/5/1 186/6/1 187/7/1 188/8/1
f 189/1/1 190/2/1 191/3/1 192/4/1
f 193/1/1 194/2/1 195/3/1 196/4/1
f 197/9/1 198/10/1 199/11/1 200/12/1
f 201/13/1 202/14/1 203/15/1 204/16/1
f 205/13/1 206/14/1 207/15/1 208/16/1
f 209/13/1 210/14/1 211/15/1 212/16/1
f 213/13/1 214/14/1 215/15/1 216/16/1
f 217/13/1 218/14/1 219/15/1 220/16/1
f 221/1/1 222/2/1 223/3/1 224/4/1
f 225/1/1 226/2/1 227/3/1 228/4/1
f 229/1/1 230/2/1 231/3/1 232/4/1
f 233/1/1 234/2/1 235/3/1 236/4/1
f 237/1/1 238/2/1 239/3/1 240/4/1
f 241/1/1 242/2/1 243/3/1 244/4/1
f 245/1/1 246/2/1 247/3/1 248/4/1
f 249/1/1 250/2/1 251/3/1 252/4/1
f 253/1/1 254/2/1 255/3/1 256/4/1
f 257/1/1 258/2/1 259/3/1 260/4/1
f 261/1/1 262/2/1 263/3/1 264/4/1
f 265/1/1 266/2/1 267/3/1 268/4/1
f 269/1/1 270/2/1 271/3/1 272/4/1
f 273/1/1 274/2/1 275/3/1 276/4/1
f 277/1/1 278/2/1 279/3/1 280/4/1
f 281/1/1 282/2/1 283/3/1 284/4/1
f 285/1/1 286/2/1 287/3/1 288/4/1
f 289/1/1 290/2/1 291/3/1 292/4/1
f 293/1/1 294/2/1 295/3/1 296/4/1
f 297/1/1 298/2/1 299/3/1 300/4/1
f 301/1/1 302/2/1 303/3/1 304/4/1
f 305/1/1 306/2/1 307/3/1 308/4/1
f 309/1/1 310/2/1 311/3/1 312/4/1
f 313/1/1 314/2/1 315/3/1 316/4/1

