# Tiled2Unity generated file. Do not modify by hand.
# Wavefront file for 'Level_2_Ground_New_mesh_0018.obj'

# Vertices (Count = 16)
v -14 -14 0
v -15 -14 0
v -15 -13 0
v -14 -13 0
v -14 -13 0
v -15 -13 0
v -15 -12 0
v -14 -12 0
v -14 -2 0
v -15 -2 0
v -15 -1 0
v -14 -1 0
v -14 -1 0
v -15 -1 0
v -15 0 0
v -14 0 0

# Texture cooridinates (Count = 4)
vt 0.7968442 0.5073892
vt 0.9940829 0.5073892
vt 0.9940829 1
vt 0.7968442 1

# Normal
vn 0 0 -1

# Mesh description
g Level_2_Ground_New_mesh_0018

# Faces
f 1/1/1 2/2/1 3/3/1 4/4/1
f 5/1/1 6/2/1 7/3/1 8/4/1
f 9/1/1 10/2/1 11/3/1 12/4/1
f 13/1/1 14/2/1 15/3/1 16/4/1

