# Tiled2Unity generated file. Do not modify by hand.
# Wavefront file for 'Level_2_Ground_New_mesh_0016.obj'

# Vertices (Count = 24)
v -1 -16 0
v -2 -16 0
v -2 -15 0
v -1 -15 0
v 0 -16 0
v -1 -16 0
v -1 -15 0
v 0 -15 0
v -1 -15 0
v -2 -15 0
v -2 -14 0
v -1 -14 0
v 0 -15 0
v -1 -15 0
v -1 -14 0
v 0 -14 0
v -1 -14 0
v -2 -14 0
v -2 -13 0
v -1 -13 0
v 0 -14 0
v -1 -14 0
v -1 -13 0
v 0 -13 0

# Texture cooridinates (Count = 8)
vt 0.3984221 0.009852231
vt 0.5956607 0.009852231
vt 0.5956607 0.502463
vt 0.3984221 0.502463
vt 0 0.009852231
vt 0.1972387 0.009852231
vt 0.1972387 0.502463
vt 0 0.502463

# Normal
vn 0 0 -1

# Mesh description
g Level_2_Ground_New_mesh_0016

# Faces
f 1/1/1 2/2/1 3/3/1 4/4/1
f 5/1/1 6/2/1 7/3/1 8/4/1
f 9/5/1 10/6/1 11/7/1 12/8/1
f 13/5/1 14/6/1 15/7/1 16/8/1
f 17/5/1 18/6/1 19/7/1 20/8/1
f 21/5/1 22/6/1 23/7/1 24/8/1

